<?xml version="1.0" encoding="UTF-8"?>
<svg width="160px" height="160px" viewBox="0 0 160 160" version="1.1" xmlns="http://www.w3.org/2000/svg" xmlns:xlink="http://www.w3.org/1999/xlink">
    <!-- Generator: sketchtool 52.6 (67491) - http://www.bohemiancoding.com/sketch -->
    <title>36D40C24-F652-45D4-9F87-FF577E449EDB@1x</title>
    <desc>Created with sketchtool.</desc>
    <defs>
        <polygon id="path-1" points="0 63.6156506 37.373759 63.6156506 37.373759 0.000302325574 0 0.000302325574"></polygon>
    </defs>
    <g id="Asset-Artboard-Page" stroke="none" stroke-width="1" fill="none" fill-rule="evenodd">
        <g id="Adaptabilité">
            <g fill-rule="nonzero" id="lottieCanevas-Copy-2">
                <g>
                    <rect id="lottieCanevas" x="0" y="0" width="160" height="160"></rect>
                </g>
            </g>
            <g id="Smartphone-battery" transform="translate(57.000000, 50.000000)">
                <g id="responsive" transform="translate(45.000000, 6.000000)">
                    <g transform="translate(0.000000, 0.746032)">
                        <polygon id="Stroke-2" stroke="#4E483C" stroke-width="3.0195" stroke-linecap="round" stroke-linejoin="round" points="0.0069473687 45.2681998 21.3423165 45.2681998 21.3423165 5.61586578 0.0069473687 5.61586578"></polygon>
                        <polygon id="Fill-4" fill="#FFFFFF" points="7.50304213 36.7658992 17.0672527 23.1952091 11.5070421 23.1952091 14.2674632 14.1197331 4.28293685 27.2987566 10.3387263 27.2987566"></polygon>
                        <g id="Group-9" transform="translate(4.232305, 0.139993)">
                            <path d="M12.8347162,5.47609671 L12.8347162,2.81276343 C12.8347162,1.39157299 11.6397688,0.240073011 10.1692425,0.240073011 L2.71587406,0.240073011 C1.24534774,0.240073011 0.050400363,1.39157299 0.050400363,2.81276343 L0.050400363,5.47609671 L12.8347162,5.47609671 Z" id="Fill-5" fill="#FEFEFE"></path>
                            <path d="M12.8347162,5.47609671 L12.8347162,2.81276343 C12.8347162,1.39157299 11.6397688,0.240073011 10.1692425,0.240073011 L2.71587406,0.240073011 C1.24534774,0.240073011 0.050400363,1.39157299 0.050400363,2.81276343 L0.050400363,5.47609671 L12.8347162,5.47609671 Z" id="Stroke-7" stroke="#4E483C" stroke-width="3.0195"></path>
                        </g>
                    </g>
                    <polygon id="Fill-1" fill="#FEFEFE" points="2.28280944 43.7761349 19.0664544 43.7761349 19.0664544 39.9333254 2.28280944 39.9333254"></polygon>
                </g>
                <g id="smartphone">
                    <g id="Group-11">
                        <path d="M29.2302089,1.52130231 L8.14324821,1.52130231 C4.49068808,1.52130231 1.52972798,4.4659535 1.52972798,8.0983954 L1.52972798,10.1920001 L35.8437291,10.1920001 L35.8437291,8.0983954 C35.8437291,4.4659535 32.881249,1.52130231 29.2302089,1.52130231" id="Fill-1" fill="#FEFEFE"></path>
                        <path d="M1.53033608,55.5177112 C1.53033608,59.1486414 4.48977601,62.0948041 8.14385591,62.0948041 L29.2308154,62.0948041 C32.8818553,62.0948041 35.8428152,59.1486414 35.8428152,55.5177112 L35.8428152,51.7885252 L1.53033608,51.7885252 L1.53033608,55.5177112 Z" id="Fill-3" fill="#FEFEFE"></path>
                        <mask id="mask-2" fill="white">
                            <use xlink:href="#path-1"></use>
                        </mask>
                        <g id="Clip-6"></g>
                        <polygon id="Fill-5" fill="#4E483C" mask="url(#mask-2)" points="1.53063995 51.7886737 35.843119 51.7886737 35.843119 10.1916975 1.53063995 10.1916975"></polygon>
                        <path d="M29.2302089,62.0941964 L8.14324821,62.0941964 C4.49068808,62.0941964 1.52972798,59.1495453 1.52972798,55.5171036 L1.52972798,8.09733713 C1.52972798,4.46640697 4.49068808,1.52175587 8.14324821,1.52175587 L29.2302089,1.52175587 C32.881249,1.52175587 35.8437291,4.46640697 35.8437291,8.09733713 L35.8437291,55.5171036 C35.8437291,59.1495453 32.881249,62.0941964 29.2302089,62.0941964 Z" id="Stroke-7" stroke="#4E483C" stroke-width="2.013" mask="url(#mask-2)"></path>
                        <path d="M20.5614955,56.2263596 C20.5614955,57.5762433 19.4610155,58.6691503 18.1036555,58.6691503 C16.7462955,58.6691503 15.6458155,57.5762433 15.6458155,56.2263596 C15.6458155,54.8749642 16.7462955,53.7820572 18.1036555,53.7820572 C19.4610155,53.7820572 20.5614955,54.8749642 20.5614955,56.2263596" id="Fill-8" fill="#4E483C" mask="url(#mask-2)"></path>
                        <path d="M31.8649767,6.1301047 C31.8649767,6.73022097 31.3740167,7.21847678 30.7690567,7.21847678 C30.1640967,7.21847678 29.6746567,6.73022097 29.6746567,6.1301047 C29.6746567,5.5284768 30.1640967,5.04022099 30.7690567,5.04022099 C31.3740167,5.04022099 31.8649767,5.5284768 31.8649767,6.1301047" id="Fill-9" fill="#4E483C" mask="url(#mask-2)"></path>
                        <path d="M14.8051041,6.13010465 L22.5677439,6.13010465" id="Stroke-10" stroke="#4E483C" stroke-width="1.5" stroke-linecap="round" stroke-linejoin="round" mask="url(#mask-2)"></path>
                    </g>
                </g>
            </g>
        </g>
    </g>
</svg>