<?xml version="1.0" encoding="UTF-8"?>
<svg width="68px" height="64px" viewBox="0 0 68 64" version="1.1" xmlns="http://www.w3.org/2000/svg" xmlns:xlink="http://www.w3.org/1999/xlink">
    <title>Adaptabilité@1x</title>
    <defs>
        <polygon id="path-1" points="0 63.6156512 37.37376 63.6156512 37.37376 0.000302325581 0 0.000302325581"></polygon>
    </defs>
    <g id="Page-1" stroke="none" stroke-width="1" fill="none" fill-rule="evenodd">
        <g id="album-green-bad" transform="translate(-774.000000, -397.000000)">
            <g id="Adaptabilité-Bad" transform="translate(717.000000, 347.000000)">
                <g id="Adaptabilité">
                    <g id="lottieCanevas" fill-rule="nonzero">
                        <rect x="0" y="0" width="160" height="160"></rect>
                    </g>
                </g>
                <g id="Smartphone-battery" transform="translate(57.000000, 50.000000)">
                    <g id="accu-empty" transform="translate(45.000000, 6.000000)">
                        <g id="responsive" stroke-width="1" transform="translate(0.000000, 0.746032)">
                            <polygon id="Stroke-2" stroke="#4E483C" stroke-width="2.264625" stroke-linecap="round" stroke-linejoin="round" points="0.00694736842 45.2681992 21.3423158 45.2681992 21.3423158 5.61586587 0.00694736842 5.61586587"></polygon>
                            <polygon id="Fill-4" fill="#FFFFFF" points="7.50304211 36.7658992 17.0672526 23.1952087 11.5070421 23.1952087 14.2674632 14.1197325 4.28293684 27.2987563 10.3387263 27.2987563"></polygon>
                            <g id="Group-9" transform="translate(4.232305, 0.139993)">
                                <path d="M12.8347162,5.47609683 L12.8347162,2.81276349 C12.8347162,1.39157302 11.6397688,0.240073016 10.1692425,0.240073016 L2.71587405,0.240073016 C1.24534773,0.240073016 0.050400363,1.39157302 0.050400363,2.81276349 L0.050400363,5.47609683 L12.8347162,5.47609683 Z" id="Fill-5" fill="#FEFEFE"></path>
                                <path d="M12.8347162,5.47609683 L12.8347162,2.81276349 C12.8347162,1.39157302 11.6397688,0.240073016 10.1692425,0.240073016 L2.71587405,0.240073016 C1.24534773,0.240073016 0.050400363,1.39157302 0.050400363,2.81276349 L0.050400363,5.47609683 L12.8347162,5.47609683 Z" id="Stroke-7" stroke="#4E483C" stroke-width="2.264625"></path>
                            </g>
                        </g>
                        <polygon id="Fill-1" fill="#D0021B" points="2.28280944 43.7761357 19.0664537 43.7761357 19.0664537 39.9333262 2.28280944 39.9333262"></polygon>
                    </g>
                    <g id="smartphone-eteint">
                        <g id="Group-11">
                            <path d="M29.230208,1.52130233 L8.143248,1.52130233 C4.490688,1.52130233 1.529728,4.46595349 1.529728,8.09839535 L1.529728,10.192 L35.843728,10.192 L35.843728,8.09839535 C35.843728,4.46595349 32.881248,1.52130233 29.230208,1.52130233" id="Fill-1" fill="#FEFEFE"></path>
                            <path d="M1.530336,55.5177093 C1.530336,59.1486395 4.489776,62.0948023 8.143856,62.0948023 L29.230816,62.0948023 C32.881856,62.0948023 35.842816,59.1486395 35.842816,55.5177093 L35.842816,51.7885233 L1.530336,51.7885233 L1.530336,55.5177093 Z" id="Fill-3" fill="#FEFEFE"></path>
                            <mask id="mask-2" fill="white">
                                <use xlink:href="#path-1"></use>
                            </mask>
                            <g id="Clip-6"></g>
                            <polygon id="Fill-5" fill="#4E483C" mask="url(#mask-2)" points="1.53064 51.7886744 35.84312 51.7886744 35.84312 10.1916977 1.53064 10.1916977"></polygon>
                            <path d="M29.230208,62.0941977 L8.143248,62.0941977 C4.490688,62.0941977 1.529728,59.1495465 1.529728,55.5171047 L1.529728,8.09733721 C1.529728,4.46640698 4.490688,1.52175581 8.143248,1.52175581 L29.230208,1.52175581 C32.881248,1.52175581 35.843728,4.46640698 35.843728,8.09733721 L35.843728,55.5171047 C35.843728,59.1495465 32.881248,62.0941977 29.230208,62.0941977 Z" id="Stroke-7" stroke="#4E483C" stroke-width="3.0195" mask="url(#mask-2)"></path>
                            <path d="M20.561496,56.2263605 C20.561496,57.5762442 19.461016,58.6691512 18.103656,58.6691512 C16.746296,58.6691512 15.645816,57.5762442 15.645816,56.2263605 C15.645816,54.8749651 16.746296,53.7820581 18.103656,53.7820581 C19.461016,53.7820581 20.561496,54.8749651 20.561496,56.2263605" id="Fill-8" fill="#4E483C" mask="url(#mask-2)"></path>
                            <path d="M31.864976,6.13010465 C31.864976,6.73022093 31.374016,7.21847674 30.769056,7.21847674 C30.164096,7.21847674 29.674656,6.73022093 29.674656,6.13010465 C29.674656,5.52847674 30.164096,5.04022093 30.769056,5.04022093 C31.374016,5.04022093 31.864976,5.52847674 31.864976,6.13010465" id="Fill-9" fill="#4E483C" mask="url(#mask-2)"></path>
                            <line x1="14.805104" y1="6.13010465" x2="22.567744" y2="6.13010465" id="Stroke-10" stroke="#4E483C" stroke-width="2.25" stroke-linecap="round" stroke-linejoin="round" mask="url(#mask-2)"></line>
                        </g>
                    </g>
                </g>
            </g>
        </g>
    </g>
</svg>