<?xml version="1.0" encoding="UTF-8"?>
<svg width="91px" height="100px" viewBox="0 0 91 100" version="1.1" xmlns="http://www.w3.org/2000/svg" xmlns:xlink="http://www.w3.org/1999/xlink">
    <title>Carbon@1x</title>
    <defs>
        <polygon id="path-1" points="0.371820765 0.245716418 29.3065749 0.245716418 29.3065749 13.6464567 0.371820765 13.6464567"></polygon>
        <polygon id="path-3" points="0.371217486 0.931008955 42.8242404 0.931008955 42.8242404 14.3323522 0.371217486 14.3323522"></polygon>
    </defs>
    <g id="Page-1" stroke="none" stroke-width="1" fill="none" fill-rule="evenodd">
        <g id="album-green-good" transform="translate(-993.000000, -377.000000)">
            <g id="Carbon" transform="translate(960.000000, 347.000000)">
                <g>
                    <g id="lottieCanevas" fill-rule="nonzero">
                        <rect x="0" y="0" width="160" height="160"></rect>
                    </g>
                    <g id="eolienne" transform="translate(33.000000, 29.000000)">
                        <g transform="translate(0.000000, 1.004975)">
                            <polygon id="Path-4" fill="#FFFFFF" fill-rule="nonzero" points="36.1967213 98.3467652 42.2295082 48.741595 39.2131148 48.741595 15.0819672 60.800995 12.0655738 56.278607 37.704918 39.8434206 40.7213115 35.1741294 42.2295082 3.51741294 48.2622951 3.51741294 49.7704918 35.1741294 52.7868852 39.8434206 76.9180328 54.8822595 76.9180328 57.7860697 75.4098361 60.800995 49.7704918 47.2338308 48.2622951 48.741595 54.295082 98.3467652"></polygon>
                            <g id="Group-3" transform="translate(47.759563, 0.256620)">
                                <mask id="mask-2" fill="white">
                                    <use xlink:href="#path-1"></use>
                                </mask>
                                <g id="Clip-2"></g>
                                <path d="M1.88001749,13.6464567 L22.6026404,13.6464567 C26.2992306,13.6464567 29.3065749,10.6405761 29.3065749,6.94578507 C29.3065749,3.25099403 26.2992306,0.245113433 22.6026404,0.245113433 L21.7520175,0.245113433 C20.9194929,0.245113433 20.2438208,0.920456716 20.2438208,1.75257612 C20.2438208,2.58620299 20.9194929,3.26003881 21.7520175,3.26003881 L22.6026404,3.26003881 C24.6356896,3.26003881 26.2901814,4.91372537 26.2901814,6.94578507 C26.2901814,8.97784478 24.6356896,10.6315313 22.6026404,10.6315313 L1.88001749,10.6315313 C1.0474929,10.6315313 0.371820765,11.3068746 0.371820765,12.138994 C0.371820765,12.9711134 1.0474929,13.6464567 1.88001749,13.6464567" id="Fill-1" fill="#FFFFFF" mask="url(#mask-2)"></path>
                            </g>
                            <g id="Group-6" transform="translate(47.759563, 7.793934)">
                                <mask id="mask-4" fill="white">
                                    <use xlink:href="#path-3"></use>
                                </mask>
                                <g id="Clip-5"></g>
                                <path d="M36.1215126,0.931008955 L35.2708896,0.931008955 C34.4368568,0.931008955 33.7626929,1.60635224 33.7626929,2.43847164 C33.7626929,3.27059104 34.4368568,3.94593433 35.2708896,3.94593433 L36.1215126,3.94593433 C38.1545617,3.94593433 39.8090536,5.5996209 39.8090536,7.6316806 C39.8090536,9.6637403 38.1545617,11.3174269 36.1215126,11.3174269 L1.87941421,11.3174269 C1.04688962,11.3174269 0.371217486,11.9912627 0.371217486,12.8248896 C0.371217486,13.657009 1.04688962,14.3323522 1.87941421,14.3323522 L36.1215126,14.3323522 C39.8181027,14.3323522 42.825447,11.3264716 42.825447,7.6316806 C42.825447,3.93688955 39.8181027,0.931008955 36.1215126,0.931008955" id="Fill-4" fill="#FFFFFF" mask="url(#mask-4)"></path>
                            </g>
                            <path d="M71.0319934,27.0941294 L49.6397311,27.0941294 C48.8072066,27.0941294 48.1315344,27.7694726 48.1315344,28.601592 C48.1315344,29.4337114 48.8072066,30.1090547 49.6397311,30.1090547 L71.0319934,30.1090547 C73.0650426,30.1090547 74.7195344,31.7627413 74.7195344,33.794801 C74.7195344,35.8268607 73.0650426,37.4805473 71.0319934,37.4805473 L70.1813705,37.4805473 C69.3473377,37.4805473 68.6731738,38.1543831 68.6731738,38.98801 C68.6731738,39.8201294 69.3473377,40.4954726 70.1813705,40.4954726 L71.0319934,40.4954726 C74.7285836,40.4954726 77.7359279,37.489592 77.7359279,33.794801 C77.7359279,30.10001 74.7285836,27.0941294 71.0319934,27.0941294" id="Fill-7" fill="#FFFFFF"></path>
                            <path d="M40.4608459,10.8881517 L12.0147475,10.8881517 C11.182223,10.8881517 10.5065508,11.563495 10.5065508,12.3956144 C10.5065508,13.2277338 11.182223,13.9030771 12.0147475,13.9030771 L40.4608459,13.9030771 C41.2933705,13.9030771 41.9690426,13.2277338 41.9690426,12.3956144 C41.9690426,11.563495 41.2933705,10.8881517 40.4608459,10.8881517" id="Fill-9" fill="#FFFFFF"></path>
                            <path d="M40.4608459,19.1107577 L6.94569836,19.1107577 C6.11317377,19.1107577 5.43750164,19.786101 5.43750164,20.6182204 C5.43750164,21.4503398 6.11317377,22.1256831 6.94569836,22.1256831 L40.4608459,22.1256831 C41.2933705,22.1256831 41.9690426,21.4503398 41.9690426,20.6182204 C41.9690426,19.786101 41.2933705,19.1107577 40.4608459,19.1107577" id="Fill-11" fill="#FFFFFF"></path>
                            <path d="M40.4608459,27.0941294 L10.3255672,27.0941294 C9.49304262,27.0941294 8.81737049,27.7694726 8.81737049,28.601592 C8.81737049,29.4337114 9.49304262,30.1090547 10.3255672,30.1090547 L40.4608459,30.1090547 C41.2933705,30.1090547 41.9690426,29.4337114 41.9690426,28.601592 C41.9690426,27.7694726 41.2933705,27.0941294 40.4608459,27.0941294" id="Fill-13" fill="#FFFFFF"></path>
                            <path d="M75.7760262,57.5739697 C75.6342557,57.8076264 75.130518,58.3503129 74.7595016,58.6518055 L50.1758951,45.9966562 C51.6358295,44.8283726 52.6915672,43.1867458 53.0550426,41.2813129 L76.1983213,56.1614771 C76.1214033,56.6333129 75.904223,57.3403129 75.7760262,57.5739697 L75.7760262,57.5739697 Z M15.629141,58.6518055 C15.2596328,58.3503129 14.7558951,57.8091338 14.6156328,57.578492 C14.4844197,57.3403129 14.2672393,56.6333129 14.1903213,56.1614771 L37.3532066,41.2692532 C37.7151738,43.1746861 38.7663869,44.8208353 40.2248131,45.9906264 L15.629141,58.6518055 Z M45.2561574,4.40425323 C45.5276328,4.41028308 46.250059,4.57610398 46.6964852,4.74644726 L48.0221902,32.3194473 C47.1429115,31.986298 46.2002885,31.7812831 45.2048787,31.7812831 C44.2501902,31.7812831 43.3467803,31.9772532 42.4961574,32.2847756 L43.8203541,4.74644726 C44.2667803,4.57610398 44.9876984,4.41028308 45.2561574,4.40425323 L45.2561574,4.40425323 Z M45.2199607,44.7605368 L45.1897967,44.7605368 C42.4478951,44.7529995 40.2187803,42.5219547 40.2187803,39.7798801 C40.2187803,37.0317756 42.4554361,34.7962085 45.2048787,34.7962085 C47.9543213,34.7962085 50.190977,37.0317756 50.190977,39.7798801 C50.190977,42.5219547 47.9618623,44.7529995 45.2199607,44.7605368 L45.2199607,44.7605368 Z M52.8574689,37.5714473 C52.5196328,36.4061786 51.9344525,35.3539697 51.1456656,34.472104 L49.6812066,4.01683532 C49.5876984,1.62750697 45.3014033,1.38932786 45.2591738,1.38932786 C45.2154361,1.38932786 40.929141,1.62750697 40.8356328,4.00326816 L39.3772066,34.3349249 C38.5326164,35.237895 37.9142557,36.3368353 37.5568131,37.5533577 L12.0667803,53.942492 C10.0427803,55.2193129 11.9823213,59.0482682 12.0019279,59.0829398 C12.0215344,59.116104 13.7846164,61.8174771 15.6276328,61.8174771 C15.9111738,61.8174771 16.1977311,61.7526562 16.4782557,61.6064323 L39.9518295,49.5226114 L34.5871738,97.414701 C34.4951738,98.242298 35.0909115,98.9869846 35.9189115,99.0804473 C36.7484197,99.1799398 37.4934689,98.5769547 37.5854689,97.7493577 L43.1733377,47.8644025 L43.3452721,47.7754622 L45.1897967,47.7754622 C45.1958295,47.7754622 45.2003541,47.7769697 45.2048787,47.7769697 C45.2094033,47.7769697 45.2139279,47.7754622 45.2199607,47.7754622 L47.0433705,47.7754622 L47.2394361,47.8764622 L52.8273049,97.7493577 C52.9132721,98.5211786 53.5648131,99.089492 54.3234361,99.089492 C54.3792393,99.089492 54.4365508,99.0864771 54.4938623,99.0804473 C55.3203541,98.9869846 55.9176,98.242298 55.8240918,97.414701 L50.4609443,49.5346711 L73.8998295,61.6004025 C74.1833705,61.7496413 74.4699279,61.8144622 74.7564852,61.8144622 C76.602518,61.8144622 78.3671082,59.1176114 78.3867148,59.0829398 C78.4078295,59.0467607 80.3428459,55.2193129 78.3324197,53.9500294 L52.8574689,37.5714473 Z" id="Fill-15" fill="#4E483C"></path>
                            <path d="M88.9837574,99.749007 L1.50834754,99.749007 C0.675822951,99.749007 0.000150819672,99.0736637 0.000150819672,98.2415443 C0.000150819672,97.4094249 0.675822951,96.7340816 1.50834754,96.7340816 L88.9837574,96.7340816 C89.816282,96.7340816 90.4919541,97.4094249 90.4919541,98.2415443 C90.4919541,99.0736637 89.816282,99.749007 88.9837574,99.749007" id="Fill-17" fill="#89BD24"></path>
                        </g>
                    </g>
                </g>
            </g>
        </g>
    </g>
</svg>