<?xml version="1.0" encoding="UTF-8"?>
<svg width="108px" height="115px" viewBox="0 0 108 115" version="1.1" xmlns="http://www.w3.org/2000/svg" xmlns:xlink="http://www.w3.org/1999/xlink">
    <title>Carbon@1x</title>
    <g id="Page-1" stroke="none" stroke-width="1" fill="none" fill-rule="evenodd">
        <g id="album-green-bad" transform="translate(-987.000000, -361.000000)">
            <g id="Carbon-Bad" transform="translate(960.000000, 347.000000)">
                <g id="Carbon">
                    <g id="lottieCanevas" fill-rule="nonzero">
                        <rect x="0" y="0" width="160" height="160"></rect>
                    </g>
                    <g id="carbonne-filaire" transform="translate(27.000000, 13.000000)">
                        <g id="Group-15" transform="translate(1.507042, 1.003745)">
                            <polyline id="Fill-1" fill="#FFFFFF" points="86.3895394 106.859931 86.3895394 68.4817288 71.7380746 78.2200659 71.715469 68.4832345 57.0609901 78.2200659 57.0383845 68.4832345 42.3854127 78.2200659 42.3613 52.6832794 25.0830606 52.6832794 25.0830606 109.088246"></polyline>
                            <g id="Group-14" transform="translate(0.000000, 0.243659)">
                                <path d="M-0.000452112676,112.921047 C25.6584493,106.419789 68.9241254,103.253474 104.216041,107.579115" id="Stroke-2" stroke="#4E483C" stroke-width="3" stroke-linecap="round"></path>
                                <polyline id="Stroke-4" stroke="#4E483C" stroke-width="3" stroke-linecap="round" stroke-linejoin="round" points="86.3895394 105.591548 86.3895394 68.2386719 71.7380746 77.9755034 71.715469 68.2386719 57.0609901 77.9755034 57.0383845 68.2386719 42.3854127 77.9755034 42.3613 52.4387169 25.0830606 52.4387169 25.0830606 107.592515"></polyline>
                                <path d="M51.4082254,9.6818764 C51.4082254,9.86255056 51.4278169,10.0402135 51.4383662,10.2208876 C50.7963662,10.0387079 50.1197042,9.93933708 49.4159155,9.93933708 C46.3686761,9.93933708 43.7765634,11.756618 42.7517746,14.3131573 C41.5370986,13.518191 40.0692394,13.0484382 38.483831,13.0484382 C34.3274085,13.0484382 30.959169,16.2538989 30.959169,20.2076517 C30.959169,21.1817865 31.1626197,22.1077416 31.5348592,22.9538989 C29.8816338,23.5471124 28.0234507,24.589 27.6135352,26.3565955 C27.2006056,28.1512921 27.6919014,29.5876517 28.4137746,30.6686854 C25.4509296,30.8734494 23.113507,33.2207079 23.113507,36.093427 C23.113507,38.8983933 25.3424225,41.205 28.2058028,41.504618 C28.4348732,41.6491573 28.6533944,41.7560562 28.8689014,41.8478989 C28.3308873,42.5314494 28.0023521,43.3730899 28.0023521,44.2915169 C28.0023521,46.5559663 29.9283521,48.3928202 32.3079718,48.3928202 C32.5189577,48.3928202 32.7239155,48.3612022 32.9243521,48.3341011 C32.9590141,48.3536742 32.9816197,48.3732472 33.0162817,48.3928202 C33.0388873,48.4048652 33.0554648,48.4108876 33.0720423,48.4138989 L33.0961549,48.4138989 C33.1293099,48.4078764 33.1534225,48.370236 33.1639718,48.3100112 C35.130662,47.9351124 36.6181127,46.2789326 36.6181127,44.2915169 C36.6181127,43.5763483 36.4071268,42.915382 36.0695493,42.328191 C36.5744085,42.206236 37.0657042,42.2739888 37.6248169,42.340236 C38.8666197,42.4892921 40.4264085,42.6383483 43.1782676,40.7051348 C45.7100986,38.9254944 46.1441268,35.8404831 46.0537042,33.5188202 C46.1230282,33.5188202 46.1908451,33.5278539 46.2631831,33.5278539 C47.3196197,33.5278539 48.3248169,33.3321236 49.254662,32.9873371 C51.8000563,34.3544382 55.4124366,35.5318315 59.2538873,34.300236 C66.8418451,31.8656517 66.7137465,24.8178539 66.7137465,24.8178539 C66.7137465,24.8178539 77.9412113,27.3412697 80.0887465,20.2076517 C82.3960282,12.5500787 71.4292817,8.84174157 71.3448873,9.94535955 C71.3494085,9.58702247 71.2710423,3.88524719 66.6459296,1.74877528 C65.1072394,0.810775281 63.2776901,0.258213483 61.312507,0.258213483 C55.8434507,0.258213483 51.4082254,4.47695506 51.4082254,9.6818764" id="Fill-6" fill="#FFFFFF"></path>
                                <path d="M46.6737014,92.4526225 L42.3861662,92.4526225 C41.5557859,92.4526225 40.8791239,91.7796112 40.8791239,90.9470045 C40.8791239,90.1159034 41.5557859,89.4413865 42.3861662,89.4413865 L46.6737014,89.4413865 C47.5086028,89.4413865 48.1807437,90.1159034 48.1807437,90.9470045 C48.1807437,91.7796112 47.5086028,92.4526225 46.6737014,92.4526225" id="Fill-8" fill="#BD2424"></path>
                                <path d="M61.4276451,92.4526225 L57.1401099,92.4526225 C56.3097296,92.4526225 55.6330676,91.7796112 55.6330676,90.9470045 C55.6330676,90.1159034 56.3097296,89.4413865 57.1401099,89.4413865 L61.4276451,89.4413865 C62.2625465,89.4413865 62.9346873,90.1159034 62.9346873,90.9470045 C62.9346873,91.7796112 62.2625465,92.4526225 61.4276451,92.4526225" id="Fill-10" fill="#BD2424"></path>
                                <path d="M76.1830958,92.4526225 L71.8940535,92.4526225 C71.0636732,92.4526225 70.3870113,91.7796112 70.3870113,90.9470045 C70.3870113,90.1159034 71.0636732,89.4413865 71.8940535,89.4413865 L76.1830958,89.4413865 C77.0164901,89.4413865 77.690138,90.1159034 77.690138,90.9470045 C77.690138,91.7796112 77.0164901,92.4526225 76.1830958,92.4526225" id="Fill-12" fill="#BD2424"></path>
                            </g>
                        </g>
                    </g>
                </g>
            </g>
        </g>
    </g>
</svg>