<?xml version="1.0" encoding="UTF-8"?>
<svg width="160px" height="160px" viewBox="0 0 160 160" version="1.1" xmlns="http://www.w3.org/2000/svg" xmlns:xlink="http://www.w3.org/1999/xlink">
    <!-- Generator: sketchtool 52.6 (67491) - http://www.bohemiancoding.com/sketch -->
    <title>8DD792E8-6465-4F90-8CA4-83C75E27685A@1x</title>
    <desc>Created with sketchtool.</desc>
    <defs>
        <polygon id="path-1" points="1.37728528 0.245716422 30.3120386 0.245716422 30.3120386 13.6464564 1.37728528 13.6464564"></polygon>
        <polygon id="path-3" points="1.37668199 0.931008991 43.8297036 0.931008991 43.8297036 14.3323528 1.37668199 14.3323528"></polygon>
    </defs>
    <g id="Asset-Artboard-Page" stroke="none" stroke-width="1" fill="none" fill-rule="evenodd">
        <g id="Carbon">
            <g>
                <g id="lottieCanevas-Copy-3" fill-rule="nonzero">
                    <rect id="lottieCanevas" x="0" y="0" width="160" height="160"></rect>
                </g>
                <g id="eolienne" transform="translate(33.000000, 29.000000)">
                    <g>
                        <polygon id="Path-4" fill="#FFFFFF" fill-rule="nonzero" points="36.1967213 99.3517417 42.2295082 49.7465708 39.2131148 49.7465708 15.0819672 61.805971 12.0655738 57.2835829 37.704918 40.8483963 40.7213115 36.179105 42.2295082 4.52238806 48.2622951 4.52238806 49.7704918 36.179105 52.7868852 40.8483963 76.9180328 55.8872354 76.9180328 58.7910456 75.4098361 61.805971 49.7704918 48.2388066 48.2622951 49.7465708 54.295082 99.3517417"></polygon>
                        <g id="Group-3" transform="translate(46.754098, 1.261596)">
                            <mask id="mask-2" fill="white">
                                <use xlink:href="#path-1"></use>
                            </mask>
                            <g id="Clip-2"></g>
                            <path d="M2.88548196,13.6464572 L23.6081043,13.6464572 C27.3046944,13.6464572 30.3120386,10.6405765 30.3120386,6.94578533 C30.3120386,3.25099414 27.3046944,0.245113426 23.6081043,0.245113426 L22.7574814,0.245113426 C21.9249568,0.245113426 21.2492847,0.920456736 21.2492847,1.75257617 C21.2492847,2.58620307 21.9249568,3.26003892 22.7574814,3.26003892 L23.6081043,3.26003892 C25.6411535,3.26003892 27.2956452,4.91372555 27.2956452,6.94578533 C27.2956452,8.97784511 25.6411535,10.6315317 23.6081043,10.6315317 L2.88548196,10.6315317 C2.05295739,10.6315317 1.37728528,11.306875 1.37728528,12.1389945 C1.37728528,12.9711139 2.05295739,13.6464572 2.88548196,13.6464572" id="Fill-1" fill="#FFFFFF" mask="url(#mask-2)"></path>
                        </g>
                        <g id="Group-6" transform="translate(46.754098, 8.798909)">
                            <mask id="mask-4" fill="white">
                                <use xlink:href="#path-3"></use>
                            </mask>
                            <g id="Clip-5"></g>
                            <path d="M37.1269773,0.931008991 L36.2763543,0.931008991 C35.4423215,0.931008991 34.7681576,1.6063523 34.7681576,2.43847174 C34.7681576,3.27059117 35.4423215,3.94593448 36.2763543,3.94593448 L37.1269773,3.94593448 C39.1600265,3.94593448 40.8145183,5.59962111 40.8145183,7.63168089 C40.8145183,9.66374067 39.1600265,11.3174273 37.1269773,11.3174273 L2.88487872,11.3174273 C2.05235412,11.3174273 1.37668199,11.9912631 1.37668199,12.82489 C1.37668199,13.6570095 2.05235412,14.3323528 2.88487872,14.3323528 L37.1269773,14.3323528 C40.8235675,14.3323528 43.8309117,11.3264721 43.8309117,7.63168089 C43.8309117,3.9368897 40.8235675,0.931008991 37.1269773,0.931008991" id="Fill-4" fill="#FFFFFF" mask="url(#mask-4)"></path>
                        </g>
                        <path d="M71.0319924,28.0991036 L49.6397305,28.0991036 C48.8072059,28.0991036 48.1315338,28.7744469 48.1315338,29.6065663 C48.1315338,30.4386857 48.8072059,31.114029 49.6397305,31.114029 L71.0319924,31.114029 C73.0650416,31.114029 74.7195334,32.7677157 74.7195334,34.7997755 C74.7195334,36.8318352 73.0650416,38.4855219 71.0319924,38.4855219 L70.1813695,38.4855219 C69.3473367,38.4855219 68.6731728,39.1593577 68.6731728,39.9929846 C68.6731728,40.825104 69.3473367,41.5004474 70.1813695,41.5004474 L71.0319924,41.5004474 C74.7285826,41.5004474 77.7359268,38.4945666 77.7359268,34.7997755 C77.7359268,31.1049843 74.7285826,28.0991036 71.0319924,28.0991036" id="Fill-7" fill="#FFFFFF"></path>
                        <path d="M40.460846,11.8931271 L12.0147476,11.8931271 C11.182223,11.8931271 10.5065508,12.5684704 10.5065508,13.4005898 C10.5065508,14.2327092 11.182223,14.9080525 12.0147476,14.9080525 L40.460846,14.9080525 C41.2933706,14.9080525 41.9690427,14.2327092 41.9690427,13.4005898 C41.9690427,12.5684704 41.2933706,11.8931271 40.460846,11.8931271" id="Fill-9" fill="#FFFFFF"></path>
                        <path d="M40.460846,20.1157328 L6.94569829,20.1157328 C6.1131737,20.1157328 5.43750156,20.7910761 5.43750156,21.6231955 C5.43750156,22.4553149 6.1131737,23.1306582 6.94569829,23.1306582 L40.460846,23.1306582 C41.2933706,23.1306582 41.9690427,22.4553149 41.9690427,21.6231955 C41.9690427,20.7910761 41.2933706,20.1157328 40.460846,20.1157328" id="Fill-11" fill="#FFFFFF"></path>
                        <path d="M40.4608474,28.0991036 L10.3255675,28.0991036 C9.49304284,28.0991036 8.81737068,28.7744468 8.81737068,29.6065662 C8.81737068,30.4386856 9.49304284,31.1140289 10.3255675,31.1140289 L40.4608474,31.1140289 C41.293372,31.1140289 41.9690442,30.4386856 41.9690442,29.6065662 C41.9690442,28.7744468 41.293372,28.0991036 40.4608474,28.0991036" id="Fill-13" fill="#FFFFFF"></path>
                        <path d="M75.7760269,58.5789434 C75.6342564,58.8126001 75.1305187,59.3552867 74.7595023,59.6567792 L50.1758962,47.0016302 C51.6358306,45.8333467 52.6915683,44.1917199 53.0550437,42.2862871 L76.198322,57.1664509 C76.121404,57.6382867 75.9042236,58.3452867 75.7760269,58.5789434 Z M15.6291407,59.6567807 C15.2596326,59.3552881 14.7558949,58.814109 14.6156326,58.5834672 C14.4844195,58.3452881 14.2672392,57.6382881 14.1903211,57.1664523 L37.3532052,42.2742282 C37.7151724,44.1796611 38.7663855,45.8258104 40.2248116,46.9956014 L15.6291407,59.6567807 Z M45.2561571,5.40922834 C45.5276325,5.41525819 46.2500587,5.58107909 46.6964849,5.75142237 L48.0221899,33.3244218 C47.1429112,32.9912726 46.2002882,32.7862577 45.2048784,32.7862577 C44.2501898,32.7862577 43.34678,32.9822278 42.496157,33.2897502 L43.8203538,5.75142237 C44.26678,5.58107909 44.987698,5.41525819 45.2561571,5.40922834 Z M45.21996,45.7655111 L45.189796,45.7655111 C42.4478944,45.7579738 40.2187796,43.5269289 40.2187796,40.7848543 C40.2187796,38.0367497 42.4554354,35.8011825 45.204878,35.8011825 C47.9543206,35.8011825 50.1909763,38.0367497 50.1909763,40.7848543 C50.1909763,43.5269289 47.9618616,45.7579738 45.21996,45.7655111 Z M52.857468,38.5764216 C52.519632,37.4111529 51.9344517,36.358944 51.1456648,35.4770784 L49.6812058,5.02181037 C49.5876976,2.63248207 45.3014026,2.39430297 45.2591731,2.39430297 C45.2154354,2.39430297 40.9291403,2.63248207 40.8356321,5.00824321 L39.3772059,35.3398993 C38.5326158,36.2428694 37.9142551,37.3418097 37.5568125,38.558332 L12.0667801,54.947466 C10.0427801,56.2242869 11.982321,60.053242 12.0019276,60.0879136 C12.0215342,60.1210778 13.7846161,62.8224509 15.6276325,62.8224509 C15.9111734,62.8224509 16.1977308,62.75763 16.4782554,62.6114061 L39.9518289,50.5275855 L34.5871732,98.419674 C34.4951732,99.247271 35.0909109,99.9919575 35.9189109,100.08542 C36.7484191,100.184913 37.4934682,99.5819277 37.5854682,98.7543307 L43.173337,48.8693766 L43.3452714,48.7804363 L45.189796,48.7804363 C45.1958288,48.7804363 45.2003534,48.7819437 45.204878,48.7819437 C45.2094026,48.7819437 45.2139272,48.7804363 45.2199599,48.7804363 L47.0433698,48.7804363 L47.2394353,48.8814363 L52.8273041,98.7543307 C52.9132713,99.5261516 53.5648123,100.094465 54.3234352,100.094465 C54.3792385,100.094465 54.43655,100.09145 54.4938615,100.08542 C55.3203533,99.9919575 55.9175992,99.247271 55.824091,98.419674 L50.4609435,50.5396452 L73.8998284,62.6053763 C74.1833694,62.7546151 74.4699268,62.819436 74.7564842,62.819436 C76.6025169,62.819436 78.3671071,60.1225853 78.3867136,60.0879136 C78.4078284,60.0517345 80.3428447,56.2242869 78.3324185,54.9550033 L52.857468,38.5764216 Z" id="Fill-15" fill="#4E483C"></path>
                        <path d="M88.9837574,100.753982 L1.50834754,100.753982 C0.675822951,100.753982 0.000150819668,100.078638 0.000150819668,99.2465188 C0.000150819668,98.4143994 0.675822951,97.7390561 1.50834754,97.7390561 L88.9837574,97.7390561 C89.816282,97.7390561 90.4919541,98.4143994 90.4919541,99.2465188 C90.4919541,100.078638 89.816282,100.753982 88.9837574,100.753982" id="Fill-17" fill="#89BD24"></path>
                    </g>
                </g>
            </g>
        </g>
    </g>
</svg>