<?xml version="1.0" encoding="UTF-8"?>
<svg width="160px" height="160px" viewBox="0 0 160 160" version="1.1" xmlns="http://www.w3.org/2000/svg" xmlns:xlink="http://www.w3.org/1999/xlink">
    <!-- Generator: sketchtool 52.6 (67491) - http://www.bohemiancoding.com/sketch -->
    <title>375C3E38-B1CA-445C-BDA0-092B35D2A15B@1x</title>
    <desc>Created with sketchtool.</desc>
    <g id="Asset-Artboard-Page" stroke="none" stroke-width="1" fill="none" fill-rule="evenodd">
        <g id="Carbon">
            <g>
                <g id="lottieCanevas-Copy-3" fill-rule="nonzero">
                    <rect id="lottieCanevas" x="0" y="0" width="160" height="160"></rect>
                </g>
                <g id="carbonne" transform="translate(27.000000, 13.000000)">
                    <g id="Group-15" transform="translate(1.507042, 0.000000)">
                        <polyline id="Fill-1" fill="#FFFFFF" points="86.3895398 107.863676 86.3895398 69.4854728 71.7380749 79.2238102 71.7154692 69.4869784 57.0609903 79.2238102 57.0383846 69.4869784 42.3854127 79.2238102 42.3613 53.6870229 25.0830604 53.6870229 25.0830604 110.091991"></polyline>
                        <g id="Group-14" transform="translate(0.000000, 1.247404)">
                            <path d="M-0.000452112698,112.921047 C25.6584493,106.419788 68.9241252,103.253474 104.216041,107.579114" id="Stroke-2" stroke="#4E483C" stroke-width="2" stroke-linecap="round"></path>
                            <polyline id="Stroke-4" stroke="#4E483C" stroke-width="2" stroke-linecap="round" stroke-linejoin="round" points="86.3895398 105.59155 86.3895398 68.2386734 71.7380749 77.9755049 71.7154692 68.2386734 57.0609903 77.9755049 57.0383846 68.2386734 42.3854127 77.9755049 42.3613 52.4387184 25.0830604 52.4387184 25.0830604 107.592516"></polyline>
                            <path d="M51.4082247,9.68187618 C51.4082247,9.86255033 51.4278162,10.0402133 51.4383655,10.2208874 C50.7963655,10.0387076 50.1197036,9.93933685 49.4159148,9.93933685 C46.3686755,9.93933685 43.7765628,11.7566177 42.7517741,14.313157 C41.5370981,13.5181907 40.069239,13.0484379 38.4838305,13.0484379 C34.3274081,13.0484379 30.9591687,16.2538985 30.9591687,20.2076512 C30.9591687,21.181786 31.1626194,22.1077411 31.5348588,22.9538983 C29.8816335,23.5471118 28.0234504,24.5889994 27.613535,26.3565949 C27.2006054,28.1512915 27.6919012,29.587651 28.4137744,30.6686847 C25.4509294,30.8734487 23.1135069,33.2207071 23.1135069,36.0934261 C23.1135069,38.8983924 25.3424223,41.204999 28.2058026,41.504617 C28.434873,41.6491563 28.6533941,41.7560552 28.8689011,41.8478979 C28.3308871,42.5314484 28.0023519,43.3730889 28.0023519,44.2915158 C28.0023519,46.5559652 29.9283518,48.3928191 32.3079715,48.3928191 C32.5189574,48.3928191 32.7239151,48.3612011 32.9243518,48.3341 C32.9590137,48.353673 32.9816194,48.3732461 33.0162813,48.3928191 C33.038887,48.404864 33.0554644,48.4108865 33.0720419,48.4138977 L33.0961546,48.4138977 C33.1293095,48.4078753 33.1534222,48.3702348 33.1639715,48.3100101 C35.1306616,47.9351112 36.6181123,46.2789315 36.6181123,44.2915158 C36.6181123,43.5763473 36.4071263,42.915381 36.0695489,42.32819 C36.574408,42.206235 37.0657038,42.2739878 37.6248165,42.340235 C38.8666193,42.4892911 40.426408,42.6383473 43.1782671,40.7051339 C45.710098,38.9254935 46.1441262,35.8404823 46.0537036,33.5188194 C46.1230276,33.5188194 46.1908445,33.5278532 46.2631825,33.5278532 C47.3196191,33.5278532 48.3248163,33.3321228 49.2546613,32.9873363 C51.8000556,34.3544374 55.4124358,35.5318306 59.2538865,34.3002352 C66.8418441,31.8656509 66.7137455,24.8178534 66.7137455,24.8178534 C66.7137455,24.8178534 77.9412101,27.341269 80.0887452,20.2076512 C82.3960269,12.5500784 71.4292806,8.84174137 71.3448862,9.94535932 C71.3494074,9.58702225 71.2710412,3.8852471 66.6459286,1.74877524 C65.1072385,0.810775264 63.2776892,0.258213479 61.3125062,0.258213479 C55.8434499,0.258213479 51.4082247,4.47695495 51.4082247,9.68187618" id="Fill-6" fill="#FFFFFF"></path>
                            <path d="M46.673702,92.4526251 L42.386167,92.4526251 C41.5557867,92.4526251 40.8791248,91.7796139 40.8791248,90.9470072 C40.8791248,90.115906 41.5557867,89.4413892 42.386167,89.4413892 L46.673702,89.4413892 C47.5086033,89.4413892 48.1807442,90.115906 48.1807442,90.9470072 C48.1807442,91.7796139 47.5086033,92.4526251 46.673702,92.4526251" id="Fill-8" fill="#89BD24"></path>
                            <path d="M61.427647,92.4526251 L57.140112,92.4526251 C56.3097317,92.4526251 55.6330698,91.7796139 55.6330698,90.9470072 C55.6330698,90.115906 56.3097317,89.4413892 57.140112,89.4413892 L61.427647,89.4413892 C62.2625484,89.4413892 62.9346892,90.115906 62.9346892,90.9470072 C62.9346892,91.7796139 62.2625484,92.4526251 61.427647,92.4526251" id="Fill-10" fill="#89BD24"></path>
                            <path d="M76.1830938,92.4526251 L71.8940514,92.4526251 C71.0636711,92.4526251 70.3870091,91.7796139 70.3870091,90.9470072 C70.3870091,90.115906 71.0636711,89.4413892 71.8940514,89.4413892 L76.1830938,89.4413892 C77.0164882,89.4413892 77.6901362,90.115906 77.6901362,90.9470072 C77.6901362,91.7796139 77.0164882,92.4526251 76.1830938,92.4526251" id="Fill-12" fill="#89BD24"></path>
                        </g>
                    </g>
                </g>
            </g>
        </g>
    </g>
</svg>