<?xml version="1.0" encoding="UTF-8"?>
<svg width="160px" height="160px" viewBox="0 0 160 160" version="1.1" xmlns="http://www.w3.org/2000/svg" xmlns:xlink="http://www.w3.org/1999/xlink">
    <!-- Generator: sketchtool 52.6 (67491) - http://www.bohemiancoding.com/sketch -->
    <title>74C17BA3-AABF-4E41-B5C4-1BE393F4F837@1x</title>
    <desc>Created with sketchtool.</desc>
    <defs>
        <polygon id="path-1" points="0 0 158 0 158 90 0 90"></polygon>
    </defs>
    <g id="Asset-Artboard-Page" stroke="none" stroke-width="1" fill="none" fill-rule="evenodd">
        <g id="hebergement">
            <path d="M75.615105,14.5642151 C75.615105,14.7667564 75.6369957,14.965922 75.6487829,15.1684632 C74.9314442,14.9642341 74.1753759,14.8528364 73.3889975,14.8528364 C69.9841644,14.8528364 67.0878671,16.890064 65.9428194,19.756023 C64.585601,18.8648414 62.9454885,18.3382341 61.1740323,18.3382341 C56.5298534,18.3382341 52.7663508,21.9316538 52.7663508,26.363932 C52.7663508,27.455967 52.9936765,28.493991 53.4095982,29.4425593 C51.5623668,30.1075698 49.4861258,31.2755578 49.0281067,33.2570865 C48.5667198,35.2689965 49.1156692,36.8791996 49.9222543,38.0910715 C46.6117192,38.3206183 44,40.951967 44,44.1723732 C44,47.3168264 46.4904788,49.9026033 49.689877,50.2384842 C49.9458288,50.4005173 50.1899934,50.5203542 50.4307902,50.6233127 C49.8296401,51.3895938 49.4625513,52.3330985 49.4625513,53.3626833 C49.4625513,55.9012006 51.6145675,57.9603702 54.2734357,57.9603702 C54.5091809,57.9603702 54.7381904,57.9249255 54.9621483,57.8945443 C55.0008778,57.9164862 55.0261362,57.9384282 55.0648658,57.9603702 C55.0901242,57.9738729 55.108647,57.9806243 55.1271699,57.984 L55.1541122,57.984 C55.1911578,57.9772486 55.2181001,57.9350525 55.2298874,57.8675388 C57.4273687,57.4472656 59.0893718,55.5906373 59.0893718,53.3626833 C59.0893718,52.5609575 58.8536267,51.819994 58.4764345,51.1617349 C59.0405389,51.0250195 59.5894883,51.1009725 60.2142129,51.1752376 C61.6017413,51.3423342 63.3445713,51.5094307 66.4193613,49.3422391 C69.2483028,47.3472076 69.7332642,43.8888154 69.6322306,41.2861601 C69.7096897,41.2861601 69.7854649,41.2962871 69.8662918,41.2962871 C71.0467013,41.2962871 72.1698584,41.0768674 73.2088209,40.6903512 C76.0529174,42.2229135 80.0892107,43.5428074 84.3814559,42.1621511 C92.8598609,39.4329075 92.7167299,31.5321101 92.7167299,31.5321101 C92.7167299,31.5321101 105.261738,34.3609365 107.661287,26.363932 C110.239328,17.7795578 97.9856334,13.6223982 97.8913354,14.8595878 C97.8963871,14.4578809 97.8088246,8.06601601 92.6409547,5.67096548 C90.9216992,4.61943872 88.8774522,4 86.6816547,4 C80.5708043,4 75.615105,8.72933867 75.615105,14.5642151" id="Fill-6" fill="#FFFFFF"></path>
            <g>
                <g id="lottieCanevas" fill-rule="nonzero">
                    <rect x="0" y="0" width="160" height="160"></rect>
                </g>
                <g id="serveur" transform="translate(2.000000, 28.000000)">
                    <mask id="mask-2" fill="white">
                        <use xlink:href="#path-1"></use>
                    </mask>
                    <g id="Clip-2"></g>
                    <path d="M82.4125975,86.697998 L115.285574,86.697998 L115.285574,82.1791682 L82.4125975,82.1791682 L82.4125975,86.697998 Z M69.941694,86.697998 L69.941694,82.1791682 L74.3535812,82.1791682 L76.6780739,82.1791682 L80.0881047,82.1791682 L80.0881047,86.697998 L69.941694,86.697998 Z M45.3601834,86.697998 L67.6148768,86.697998 L67.6148768,82.1791682 L45.3601834,82.1791682 L45.3601834,86.697998 Z M152.837754,86.697998 L117.610066,86.697998 L117.610066,82.1791682 L123.34459,82.1791682 L123.34459,0 L74.3535812,0 L74.3535812,30.3634059 L36.2993107,30.3634059 L36.2993107,46.866458 L36.2993107,49.16846 L36.2993107,63.3718121 L36.2993107,65.6738141 L36.2993107,82.1791682 L43.0356906,82.1791682 L43.0356906,86.697998 L11.1622464,86.697998 C10.5183619,86.697998 10,87.2159485 10,87.848999 C10,88.4866536 10.5183619,89 11.1622464,89 L43.0356906,89 L69.941694,89 L80.0881047,89 L117.610066,89 L152.837754,89 C153.479314,89 154,88.4866536 154,87.848999 C154,87.2159485 153.479314,86.697998 152.837754,86.697998 Z" id="Fill-1" fill="#FFFFFF" mask="url(#mask-2)"></path>
                    <path d="M6.79032258,87 L6.20967742,87 C5.54193548,87 5,87.45 5,88 C5,88.552 5.54193548,89 6.20967742,89 L6.79032258,89 C7.45806452,89 8,88.552 8,88 C8,87.45 7.45806452,87 6.79032258,87" id="Fill-3" fill="#FFFFFF" mask="url(#mask-2)"></path>
                    <path d="M3.78714372,87 L2.21285628,87 C1.54335961,87 1,87.45 1,88 C1,88.552 1.54335961,89 2.21285628,89 L3.78714372,89 C4.45664039,89 5,88.552 5,88 C5,87.45 4.45664039,87 3.78714372,87" id="Fill-4" fill="#FFFFFF" mask="url(#mask-2)"></path>
                    <path d="M156.787144,87 L155.212856,87 C154.540934,87 154,87.45 154,88 C154,88.552 154.540934,89 155.212856,89 L156.787144,89 C157.45664,89 158,88.552 158,88 C158,87.45 157.45664,87 156.787144,87" id="Fill-5" fill="#FFFFFF" mask="url(#mask-2)"></path>
                    <polygon id="Fill-6" fill="#DE3730" mask="url(#mask-2)" points="46 41 50 41 50 39 46 39"></polygon>
                    <polygon id="Fill-7" fill="#DE3730" mask="url(#mask-2)" points="54 41 58 41 58 39 54 39"></polygon>
                    <polygon id="Fill-8" fill="#DE3730" mask="url(#mask-2)" points="63 41 67 41 67 39 63 39"></polygon>
                    <polygon id="Fill-9" fill="#DE3730" mask="url(#mask-2)" points="46 57 50 57 50 55 46 55"></polygon>
                    <polygon id="Fill-10" fill="#DE3730" mask="url(#mask-2)" points="54 57 58 57 58 55 54 55"></polygon>
                    <polygon id="Fill-11" fill="#DE3730" mask="url(#mask-2)" points="63 57 67 57 67 55 63 55"></polygon>
                    <polygon id="Fill-12" fill="#DE3730" mask="url(#mask-2)" points="46 74 50 74 50 72 46 72"></polygon>
                    <polygon id="Fill-13" fill="#DE3730" mask="url(#mask-2)" points="54 74 58 74 58 72 54 72"></polygon>
                    <polygon id="Fill-14" fill="#D0021B" mask="url(#mask-2)" points="63 74 67 74 67 72 63 72"></polygon>
                    <path d="M82.2051962,87.108861 L114.590604,87.108861 L114.590604,83.1468442 L82.2051962,83.1468442 L82.2051962,87.108861 Z M69.6981623,83.1468442 L73.8314282,83.1468442 L76.1626553,83.1468442 L79.2911622,83.1468442 L79.2911622,87.108861 L69.6981623,87.108861 L69.6981623,83.1468442 Z M38.2918696,47.0885588 L73.5400248,47.0885588 L73.5400248,33.3961246 L38.2918696,33.3961246 L38.2918696,47.0885588 Z M38.2918696,63.672132 L73.5400248,63.672132 L73.5400248,49.9796978 L38.2918696,49.9796978 L38.2918696,63.672132 Z M117.213235,80.2557052 L79.5825656,80.2557052 L76.4540587,80.2557052 L76.4540587,66.2741571 L76.4540587,63.9612459 L76.4540587,49.6905839 L76.4540587,47.3776727 L76.4540587,30.7964124 L76.4540587,2.89113898 L120.341742,2.89113898 L120.341742,80.2557052 L117.213235,80.2557052 Z M38.2918696,80.2557052 L38.2918696,66.563271 L73.5400248,66.563271 L73.5400248,80.2557052 L69.406759,80.2557052 L42.4251355,80.2557052 L38.2918696,80.2557052 Z M45.047766,87.108861 L66.7841284,87.108861 L66.7841284,83.1468442 L45.047766,83.1468442 L45.047766,87.108861 Z M152.542983,87.108861 L117.504638,87.108861 L117.504638,83.1468442 L122.964372,83.1468442 C123.127558,83.1468442 123.255776,83.019634 123.255776,82.8577303 L123.255776,0.289113898 C123.255776,0.129523026 123.127558,0 122.964372,0 L73.8314282,0 C73.6705735,0 73.5400248,0.129523026 73.5400248,0.289113898 L73.5400248,30.5072985 L35.6692391,30.5072985 C35.5083844,30.5072985 35.3778357,30.6345086 35.3778357,30.7964124 L35.3778357,47.3776727 L35.3778357,49.6905839 L35.3778357,63.9612459 L35.3778357,66.2741571 L35.3778357,82.8577303 C35.3778357,83.019634 35.5083844,83.1468442 35.6692391,83.1468442 L42.1337321,83.1468442 L42.1337321,87.108861 L10.457017,87.108861 C9.65274361,87.108861 9,87.7564762 9,88.5544305 C9,89.3523849 9.65274361,90 10.457017,90 L42.4251355,90 L69.406759,90 L79.5825656,90 L117.213235,90 L152.542983,90 C153.344925,90 154,89.3523849 154,88.5544305 C154,87.7564762 153.344925,87.108861 152.542983,87.108861 Z" id="Fill-15" fill="#4E483C" mask="url(#mask-2)"></path>
                    <path d="M6.32102082,87 L5.67897918,87 C4.75218267,87 4,87.672 4,88.5 C4,89.328 4.75218267,90 5.67897918,90 L6.32102082,90 C7.24781733,90 8,89.328 8,88.5 C8,87.672 7.24781733,87 6.32102082,87" id="Fill-16" fill="#4E483C" mask="url(#mask-2)"></path>
                    <path d="M2.68351764,87 L1.31648236,87 C0.589784097,87 0,87.672 0,88.5 C0,89.328 0.589784097,90 1.31648236,90 L2.68351764,90 C3.4102159,90 4,89.328 4,88.5 C4,87.672 3.4102159,87 2.68351764,87" id="Fill-17" fill="#4E483C" mask="url(#mask-2)"></path>
                    <path d="M156.683518,87 L155.316482,87 C154.589784,87 154,87.672 154,88.5 C154,89.328 154.589784,90 155.316482,90 L156.683518,90 C157.410216,90 158,89.328 158,88.5 C158,87.672 157.410216,87 156.683518,87" id="Fill-18" fill="#4E483C" mask="url(#mask-2)"></path>
                    <path d="M113.70883,10 L81.2911696,10 C81.130444,10 81,10.1344 81,10.3 L81,12.7 C81,12.8656 81.130444,13 81.2911696,13 L113.70883,13 C113.869556,13 114,12.8656 114,12.7 L114,10.3 C114,10.1344 113.869556,10 113.70883,10" id="Fill-19" fill="#4E483C" mask="url(#mask-2)"></path>
                    <path d="M113.70883,19 L81.2911696,19 C81.130444,19 81,19.1344 81,19.3 L81,21.7 C81,21.8656 81.130444,22 81.2911696,22 L113.70883,22 C113.869556,22 114,21.8656 114,21.7 L114,19.3 C114,19.1344 113.869556,19 113.70883,19" id="Fill-20" fill="#4E483C" mask="url(#mask-2)"></path>
                    <path d="M113.70883,28 L81.2911696,28 C81.130444,28 81,28.1344 81,28.3 L81,30.7 C81,30.8656 81.130444,31 81.2911696,31 L113.70883,31 C113.869556,31 114,30.8656 114,30.7 L114,28.3 C114,28.1344 113.869556,28 113.70883,28" id="Fill-21" fill="#4E483C" mask="url(#mask-2)"></path>
                    <path d="M113.70883,38 L81.2911696,38 C81.130444,38 81,38.1344 81,38.3 L81,40.7 C81,40.8656 81.130444,41 81.2911696,41 L113.70883,41 C113.869556,41 114,40.8656 114,40.7 L114,38.3 C114,38.1344 113.869556,38 113.70883,38" id="Fill-22" fill="#4E483C" mask="url(#mask-2)"></path>
                    <path d="M113.70883,47 L81.2911696,47 C81.130444,47 81,47.1344 81,47.3 L81,49.7 C81,49.8656 81.130444,50 81.2911696,50 L113.70883,50 C113.869556,50 114,49.8656 114,49.7 L114,47.3 C114,47.1344 113.869556,47 113.70883,47" id="Fill-23" fill="#4E483C" mask="url(#mask-2)"></path>
                    <path d="M83.9116962,71.1793349 L111.088304,71.1793349 L111.088304,57.8206651 L83.9116962,57.8206651 L83.9116962,71.1793349 Z M113.70883,55 L81.2911696,55 C81.130444,55 81,55.1263658 81,55.2820665 L81,73.7179335 C81,73.8758907 81.130444,74 81.2911696,74 L113.70883,74 C113.869556,74 114,73.8758907 114,73.7179335 L114,55.2820665 C114,55.1263658 113.869556,55 113.70883,55 Z" id="Fill-24" fill="#4E483C" mask="url(#mask-2)"></path>
                </g>
                <polygon id="Fill-14" fill="#D0021B" points="84 78 106 78 106 76 84 76"></polygon>
                <polygon id="Fill-14-Copy-6" fill="#A2D066" points="106 78 115 78 115 76 106 76"></polygon>
                <polygon id="Fill-14-Copy" fill="#D0021B" points="84 69 104 69 104 67 84 67"></polygon>
                <polygon id="Fill-14-Copy-5" fill="#A2D066" points="104 69 115 69 115 67 104 67"></polygon>
                <polygon id="Fill-14-Copy-2" fill="#D0021B" points="84 59 112 59 112 57 84 57"></polygon>
                <polygon id="Fill-14-Copy-7" fill="#A2D066" points="112 59 115 59 115 57 112 57"></polygon>
                <polygon id="Fill-14-Copy-3" fill="#D0021B" points="84 50 112 50 112 48 84 48"></polygon>
                <polygon id="Fill-14-Copy-8" fill="#A2D066" points="112 50 115 50 115 48 112 48"></polygon>
                <polygon id="Fill-14-Copy-4" fill="#D0021B" points="84 41 116 41 116 39 84 39"></polygon>
            </g>
        </g>
    </g>
</svg>