<?xml version="1.0" encoding="UTF-8"?>
<svg width="160px" height="160px" viewBox="0 0 160 160" version="1.1" xmlns="http://www.w3.org/2000/svg" xmlns:xlink="http://www.w3.org/1999/xlink">
    <!-- Generator: sketchtool 52.6 (67491) - http://www.bohemiancoding.com/sketch -->
    <title>A8964DCF-0CA9-45D8-82AB-06049FB086C2@1x</title>
    <desc>Created with sketchtool.</desc>
    <defs>
        <polygon id="path-1" points="0 83.62185 99.5829851 83.62185 99.5829851 -0.00015 0 -0.00015"></polygon>
    </defs>
    <g id="Asset-Artboard-Page" stroke="none" stroke-width="1" fill="none" fill-rule="evenodd">
        <g id="performances">
            <g>
                <g id="lottieCanevas-Copy" fill-rule="nonzero">
                    <rect id="lottieCanevas" x="0" y="0" width="160" height="160"></rect>
                </g>
                <g id="chrono" transform="translate(17.000000, 34.000000)">
                    <g>
                        <rect id="Rectangle" fill="#FFFFFF" fill-rule="nonzero" x="58" y="3" width="13" height="4"></rect>
                        <path d="M64.3867463,14.6448 C45.5374328,14.6448 30.199,29.9073 30.199,48.6633 C30.199,67.4193 45.5374328,82.6818 64.3867463,82.6818 C83.2360597,82.6818 98.5699701,67.4193 98.5699701,48.6633 C98.5699701,29.9073 83.2360597,14.6448 64.3867463,14.6448" id="Fill-1" fill="#FEFEFE"></path>
                        <path d="M96.8235746,22.78485 L90.1575746,16.15185 C89.5500672,15.54585 88.5641866,15.54585 87.9551716,16.15185 C87.3476642,16.75635 87.3476642,17.73885 87.9551716,18.34335 L90.1877239,20.56485 L88.1104403,22.63035 C88.8777388,23.32935 89.6118731,24.06135 90.3143507,24.82335 L92.3901269,22.75635 L94.6211716,24.97785 C94.9256791,25.27935 95.3251567,25.43235 95.7246343,25.43235 C96.1226045,25.43235 96.5205746,25.27935 96.8235746,24.97785 C97.4325896,24.37185 97.4325896,23.39085 96.8235746,22.78485" id="Fill-3" fill="#4E483C"></path>
                        <mask id="mask-2" fill="white">
                            <use xlink:href="#path-1"></use>
                        </mask>
                        <g id="Clip-6"></g>
                        <path d="M58.5121642,6.73185 L70.0894776,6.73185 L70.0894776,3.10035 L58.5121642,3.10035 L58.5121642,6.73185 Z M71.648194,-0.00015 L56.9534478,-0.00015 C56.094194,-0.00015 55.3962388,0.69435 55.3962388,1.55085 L55.3962388,8.28285 C55.3962388,9.13785 56.094194,9.83235 56.9534478,9.83235 L62.7436119,9.83235 L62.7436119,13.05435 C62.7436119,13.19085 62.7662239,13.31835 62.7978806,13.44285 C63.2983582,13.42335 63.7973284,13.40685 64.3008209,13.40685 C64.8043134,13.40685 65.304791,13.42335 65.8022537,13.44285 C65.8369254,13.31835 65.8595373,13.19085 65.8595373,13.05435 L65.8595373,9.83235 L71.648194,9.83235 C72.5089552,9.83235 73.205403,9.13785 73.205403,8.28285 L73.205403,1.55085 C73.205403,0.69435 72.5089552,-0.00015 71.648194,-0.00015 Z" id="Fill-5" fill="#4E483C" mask="url(#mask-2)"></path>
                        <path d="M36.3735672,48.6921 L19.9814179,48.6921 C19.1206567,48.6921 18.424209,47.9991 18.424209,47.1426 C18.424209,46.2861 19.1206567,45.5931 19.9814179,45.5931 L36.3735672,45.5931 C37.2328209,45.5931 37.9322836,46.2861 37.9322836,47.1426 C37.9322836,47.9991 37.2328209,48.6921 36.3735672,48.6921" id="Fill-7" fill="#4E483C" mask="url(#mask-2)"></path>
                        <path d="M40.9164567,37.49925 L30.6008896,37.49925 C29.7416358,37.49925 29.0436806,36.80475 29.0436806,35.94975 C29.0436806,35.09325 29.7416358,34.39875 30.6008896,34.39875 L40.9164567,34.39875 C41.7757104,34.39875 42.4736657,35.09325 42.4736657,35.94975 C42.4736657,36.80475 41.7757104,37.49925 40.9164567,37.49925" id="Fill-8" fill="#4E483C" mask="url(#mask-2)"></path>
                        <path d="M39.0660463,59.5275 L16.6576134,59.5275 C15.7953448,59.5275 15.1004045,58.833 15.1004045,57.978 C15.1004045,57.1215 15.7953448,56.4285 16.6576134,56.4285 L39.0660463,56.4285 C39.9268075,56.4285 40.6247627,57.1215 40.6247627,57.978 C40.6247627,58.833 39.9268075,59.5275 39.0660463,59.5275" id="Fill-9" fill="#4E483C" mask="url(#mask-2)"></path>
                        <path d="M9.22145075,59.5275 L1.55751045,59.5275 C0.698256716,59.5275 0.000301492537,58.833 0.000301492537,57.978 C0.000301492537,57.1215 0.698256716,56.4285 1.55751045,56.4285 L9.22145075,56.4285 C10.0822119,56.4285 10.7801672,57.1215 10.7801672,57.978 C10.7801672,58.833 10.0822119,59.5275 9.22145075,59.5275" id="Fill-10" fill="#4E483C" mask="url(#mask-2)"></path>
                        <path d="M64.3012731,13.407 C53.2530791,13.407 43.3791985,18.489 36.9046463,26.424 C38.1362433,26.568 39.3437209,26.751 40.5240642,26.9805 C46.4122134,20.55 54.8901836,16.506 64.3012731,16.506 C82.0380791,16.506 96.4675119,30.8655 96.4675119,48.513 C96.4675119,66.1635 82.0380791,80.5215 64.3012731,80.5215 C53.7671239,80.5215 44.3997507,75.456 38.5281836,67.644 C37.3749746,67.8165 36.1961388,67.9515 35.0007209,68.0475 C41.341109,77.4345 52.1074075,83.622 64.3012731,83.622 C83.7550791,83.622 99.5834373,67.872 99.5834373,48.513 C99.5834373,29.1555 83.7550791,13.407 64.3012731,13.407" id="Fill-11" fill="#4E483C" mask="url(#mask-2)"></path>
                        <path d="M64.3837313,45.12675 C62.4240299,45.12675 60.8306418,46.71375 60.8306418,48.66225 C60.8306418,50.61225 62.4240299,52.19925 64.3837313,52.19925 C66.3434328,52.19925 67.9368209,50.61225 67.9368209,48.66225 C67.9368209,46.71375 66.3434328,45.12675 64.3837313,45.12675 M64.3837313,55.07025 C60.8351642,55.07025 57.9453582,52.19625 57.9453582,48.66225 C57.9453582,45.12975 60.8351642,42.25575 64.3837313,42.25575 C67.933806,42.25575 70.8221045,45.12975 70.8221045,48.66225 C70.8221045,52.19625 67.933806,55.07025 64.3837313,55.07025" id="Fill-12" fill="#4E483C" mask="url(#mask-2)"></path>
                        <path d="M81.7563343,50.0559 L69.4855881,50.0544 C68.6896478,50.0544 68.0429463,49.4124 68.0429463,48.6204 C68.0429463,47.8269 68.6896478,47.1849 69.4855881,47.1849 L81.7563343,47.1849 C82.5522746,47.1849 83.1989761,47.8284 83.1989761,48.6204 C83.1989761,49.4124 82.5522746,50.0559 81.7563343,50.0559" id="Fill-13" fill="#4E483C" mask="url(#mask-2)"></path>
                        <path d="M64.3837313,75.96015 C49.1749403,75.96015 36.803194,63.64815 36.803194,48.51465 C36.803194,33.38115 49.1749403,21.06915 64.3837313,21.06915 C77.2499254,21.06915 88.2905821,29.76165 91.2346567,42.20715 C91.4185672,42.97965 90.9361791,43.75215 90.1613433,43.93365 C89.3865075,44.11515 88.6071493,43.63665 88.4262537,42.86565 C85.791209,31.72215 75.9052687,23.94015 64.3837313,23.94015 C50.7668209,23.94015 39.6869701,34.96515 39.6869701,48.51465 C39.6869701,62.06415 50.7668209,73.08915 64.3837313,73.08915 C76.375597,73.08915 86.6007164,64.57665 88.6991045,52.84815 C88.837791,52.06815 89.5824776,51.54915 90.3708806,51.68715 C91.1562687,51.82515 91.6778507,52.57065 91.5391642,53.35215 C89.1965672,66.45015 77.7775373,75.96015 64.3837313,75.96015" id="Fill-14" fill="#4E483C" mask="url(#mask-2)"></path>
                        <path d="M64.3837313,45.12675 C62.4240299,45.12675 60.8306418,46.71375 60.8306418,48.66225 C60.8306418,50.61225 62.4240299,52.19925 64.3837313,52.19925 C66.3434328,52.19925 67.9368209,50.61225 67.9368209,48.66225 C67.9368209,46.71375 66.3434328,45.12675 64.3837313,45.12675" id="Fill-15" fill="#89BD24" mask="url(#mask-2)"></path>
                    </g>
                </g>
            </g>
        </g>
    </g>
</svg>