<?xml version="1.0" encoding="UTF-8"?>
<svg width="160px" height="160px" viewBox="0 0 160 160" version="1.1" xmlns="http://www.w3.org/2000/svg" xmlns:xlink="http://www.w3.org/1999/xlink">
    <!-- Generator: sketchtool 52.6 (67491) - http://www.bohemiancoding.com/sketch -->
    <title>ACB8D020-2AD1-4456-9B5F-266A67BE7E0E@1x</title>
    <desc>Created with sketchtool.</desc>
    <defs>
        <polygon id="path-1" points="0 83.62185 99.5829851 83.62185 99.5829851 -0.00015 0 -0.00015"></polygon>
    </defs>
    <g id="Asset-Artboard-Page" stroke="none" stroke-width="1" fill="none" fill-rule="evenodd">
        <g id="performances">
            <g>
                <g id="lottieCanevas-Copy" fill-rule="nonzero">
                    <rect id="lottieCanevas" x="0" y="0" width="160" height="160"></rect>
                </g>
                <g id="chrono" transform="translate(17.000000, 34.000000)">
                    <g>
                        <rect id="Rectangle" fill="#FFFFFF" fill-rule="nonzero" x="58" y="3" width="13" height="4"></rect>
                        <path d="M64.3867463,14.6448 C45.5374328,14.6448 30.199,29.9073 30.199,48.6633 C30.199,67.4193 45.5374328,82.6818 64.3867463,82.6818 C83.2360597,82.6818 98.5699701,67.4193 98.5699701,48.6633 C98.5699701,29.9073 83.2360597,14.6448 64.3867463,14.6448" id="Fill-1" fill="#FEFEFE"></path>
                        <path d="M96.8235746,22.78485 L90.1575746,16.15185 C89.5500672,15.54585 88.5641866,15.54585 87.9551716,16.15185 C87.3476642,16.75635 87.3476642,17.73885 87.9551716,18.34335 L90.1877239,20.56485 L88.1104403,22.63035 C88.8777388,23.32935 89.6118731,24.06135 90.3143507,24.82335 L92.3901269,22.75635 L94.6211716,24.97785 C94.9256791,25.27935 95.3251567,25.43235 95.7246343,25.43235 C96.1226045,25.43235 96.5205746,25.27935 96.8235746,24.97785 C97.4325896,24.37185 97.4325896,23.39085 96.8235746,22.78485" id="Fill-3" fill="#4E483C"></path>
                        <mask id="mask-2" fill="white">
                            <use xlink:href="#path-1"></use>
                        </mask>
                        <g id="Clip-6"></g>
                        <path d="M58.5121642,6.73185 L70.0894776,6.73185 L70.0894776,3.10035 L58.5121642,3.10035 L58.5121642,6.73185 Z M71.648194,-0.00015 L56.9534478,-0.00015 C56.094194,-0.00015 55.3962388,0.69435 55.3962388,1.55085 L55.3962388,8.28285 C55.3962388,9.13785 56.094194,9.83235 56.9534478,9.83235 L62.7436119,9.83235 L62.7436119,13.05435 C62.7436119,13.19085 62.7662239,13.31835 62.7978806,13.44285 C63.2983582,13.42335 63.7973284,13.40685 64.3008209,13.40685 C64.8043134,13.40685 65.304791,13.42335 65.8022537,13.44285 C65.8369254,13.31835 65.8595373,13.19085 65.8595373,13.05435 L65.8595373,9.83235 L71.648194,9.83235 C72.5089552,9.83235 73.205403,9.13785 73.205403,8.28285 L73.205403,1.55085 C73.205403,0.69435 72.5089552,-0.00015 71.648194,-0.00015 Z" id="Fill-5" fill="#4E483C" mask="url(#mask-2)"></path>
                        <path d="M64.3012731,13.407 C53.2530791,13.407 43.3791985,18.489 36.9046463,26.424 C38.1362433,26.568 39.3437209,26.751 40.5240642,26.9805 C46.4122134,20.55 54.8901836,16.506 64.3012731,16.506 C82.0380791,16.506 96.4675119,30.8655 96.4675119,48.513 C96.4675119,66.1635 82.0380791,80.5215 64.3012731,80.5215 C53.7671239,80.5215 44.3997507,75.456 38.5281836,67.644 C37.3749746,67.8165 36.1961388,67.9515 35.0007209,68.0475 C41.341109,77.4345 52.1074075,83.622 64.3012731,83.622 C83.7550791,83.622 99.5834373,67.872 99.5834373,48.513 C99.5834373,29.1555 83.7550791,13.407 64.3012731,13.407" id="Fill-11" fill="#4E483C" mask="url(#mask-2)"></path>
                        <path d="M58.3012731,13.407 C47.2530791,13.407 37.3791985,18.489 30.9046463,26.424 C32.1362433,26.568 33.3437209,26.751 34.5240642,26.9805 C40.4122134,20.55 48.8901836,16.506 58.3012731,16.506 C76.0380791,16.506 90.4675119,30.8655 90.4675119,48.513 C90.4675119,66.1635 76.0380791,80.5215 58.3012731,80.5215 C47.7671239,80.5215 38.3997507,75.456 32.5281836,67.644 C31.3749746,67.8165 30.1961388,67.9515 29.0007209,68.0475 C35.341109,77.4345 46.1074075,83.622 58.3012731,83.622 C77.7550791,83.622 93.5834373,67.872 93.5834373,48.513 C93.5834373,29.1555 77.7550791,13.407 58.3012731,13.407" id="Fill-11-Copy" fill="#4E483C" mask="url(#mask-2)" transform="translate(61.292079, 48.514500) scale(-1, 1) translate(-61.292079, -48.514500) "></path>
                        <g id="Group" mask="url(#mask-2)">
                            <g transform="translate(65.000000, 53.500000) rotate(-270.000000) translate(-65.000000, -53.500000) translate(51.500000, 46.500000)">
                                <path d="M7.38373134,3.12675 C5.42402985,3.12675 3.83064179,4.71375 3.83064179,6.66225 C3.83064179,8.61225 5.42402985,10.19925 7.38373134,10.19925 C9.34343284,10.19925 10.9368209,8.61225 10.9368209,6.66225 C10.9368209,4.71375 9.34343284,3.12675 7.38373134,3.12675 M7.38373134,13.07025 C3.83516418,13.07025 0.945358209,10.19625 0.945358209,6.66225 C0.945358209,3.12975 3.83516418,0.25575 7.38373134,0.25575 C10.933806,0.25575 13.8221045,3.12975 13.8221045,6.66225 C13.8221045,10.19625 10.933806,13.07025 7.38373134,13.07025" id="Fill-12" fill="#4E483C"></path>
                                <path d="M24.7563343,8.0559 L12.4855881,8.0544 C11.6896478,8.0544 11.0429463,7.4124 11.0429463,6.6204 C11.0429463,5.8269 11.6896478,5.1849 12.4855881,5.1849 L24.7563343,5.1849 C25.5522746,5.1849 26.1989761,5.8284 26.1989761,6.6204 C26.1989761,7.4124 25.5522746,8.0559 24.7563343,8.0559" id="Fill-13" fill="#4E483C"></path>
                                <path d="M7.38373134,3.12675 C5.42402985,3.12675 3.83064179,4.71375 3.83064179,6.66225 C3.83064179,8.61225 5.42402985,10.19925 7.38373134,10.19925 C9.34343284,10.19925 10.9368209,8.61225 10.9368209,6.66225 C10.9368209,4.71375 9.34343284,3.12675 7.38373134,3.12675" id="Fill-15" fill="#89BD24"></path>
                            </g>
                        </g>
                        <path d="M64.3837313,75.96015 C49.1749403,75.96015 36.803194,63.64815 36.803194,48.51465 C36.803194,33.38115 49.1749403,21.06915 64.3837313,21.06915 C77.2499254,21.06915 88.2905821,29.76165 91.2346567,42.20715 C91.4185672,42.97965 90.9361791,43.75215 90.1613433,43.93365 C89.3865075,44.11515 88.6071493,43.63665 88.4262537,42.86565 C85.791209,31.72215 75.9052687,23.94015 64.3837313,23.94015 C50.7668209,23.94015 39.6869701,34.96515 39.6869701,48.51465 C39.6869701,62.06415 50.7668209,73.08915 64.3837313,73.08915 C76.375597,73.08915 86.6007164,64.57665 88.6991045,52.84815 C88.837791,52.06815 89.5824776,51.54915 90.3708806,51.68715 C91.1562687,51.82515 91.6778507,52.57065 91.5391642,53.35215 C89.1965672,66.45015 77.7775373,75.96015 64.3837313,75.96015" id="Fill-14" fill="#4E483C" mask="url(#mask-2)" transform="translate(64.182344, 48.514650) scale(-1, 1) translate(-64.182344, -48.514650) "></path>
                        <path d="M64.3837313,75.96015 C49.1749403,75.96015 36.803194,63.64815 36.803194,48.51465 C36.803194,33.38115 49.1749403,21.06915 64.3837313,21.06915 C77.2499254,21.06915 88.2905821,29.76165 91.2346567,42.20715 C91.4185672,42.97965 90.9361791,43.75215 90.1613433,43.93365 C89.3865075,44.11515 88.6071493,43.63665 88.4262537,42.86565 C85.791209,31.72215 75.9052687,23.94015 64.3837313,23.94015 C50.7668209,23.94015 39.6869701,34.96515 39.6869701,48.51465 C39.6869701,62.06415 50.7668209,73.08915 64.3837313,73.08915 C76.375597,73.08915 86.6007164,64.57665 88.6991045,52.84815 C88.837791,52.06815 89.5824776,51.54915 90.3708806,51.68715 C91.1562687,51.82515 91.6778507,52.57065 91.5391642,53.35215 C89.1965672,66.45015 77.7775373,75.96015 64.3837313,75.96015" id="Fill-14" fill="#4E483C" mask="url(#mask-2)"></path>
                    </g>
                </g>
            </g>
        </g>
    </g>
</svg>