<?xml version="1.0" encoding="UTF-8"?>
<svg width="320px" height="34px" viewBox="0 0 320 34" version="1.1" xmlns="http://www.w3.org/2000/svg" xmlns:xlink="http://www.w3.org/1999/xlink">
    <!-- Generator: Sketch 52.6 (67491) - http://www.bohemiancoding.com/sketch -->
    <title>Groupe logo@3x</title>
    <desc>Created with Sketch.</desc>
    <g id="Page-1" stroke="none" stroke-width="1" fill="none" fill-rule="evenodd">
        <g id="album-green-bad" transform="translate(-57.000000, -22.000000)" fill="#4E483C">
            <g id="Head" transform="translate(0.000000, -36.000000)">
                <g id="Header" transform="translate(57.000000, 58.000000)">
                    <g id="Groupe-logo">
                        <g>
                            <g id="logo-album" fill-rule="nonzero">
                                <path d="M41.4315,19.53675 L41.4,19.53675 C40.96725,20.4765 39.87075,20.98725 38.898,20.98725 C36.65775,20.98725 36.30375,19.4745 36.30375,18.76425 C36.30375,16.12275 39.11475,15.99825 41.15325,15.99825 L41.33925,15.99825 L41.33925,15.59625 C41.33925,14.25375 41.63175,13.5735 40.32,13.5735 C39.5025,13.5735 38.73,13.758 38.00325,14.2215 L38.00325,13.278 C38.607,12.98625 39.624,12.7395 40.32,12.7395 C42.2655,12.7395 42.31275,13.62075 42.31275,15.67575 L42.31275,19.14975 C42.31275,19.7835 42.31275,20.262 42.38925,20.80275 L41.433,20.80275 L41.433,19.53675 L41.4315,19.53675 Z M41.3385,16.83225 L41.061,16.83225 C39.37725,16.83225 37.368,17.00175 37.368,18.73275 C37.368,19.76775 38.1105,20.154 39.00675,20.154 C41.29125,20.154 41.3385,18.1605 41.3385,17.3115 L41.3385,16.83225 Z M50.868,20.154 C50.868,22.34775 49.87875,24.138 47.17575,24.138 L47.17575,23.304 C49.68,23.304 49.91025,21.4815 49.91025,19.25775 L49.878,19.25775 C49.35375,20.40075 48.489,20.80275 47.4855,20.80275 C44.967,20.80275 44.16525,18.609 44.16525,16.86375 C44.16525,14.4705 45.0915,12.7395 47.4075,12.7395 C48.4575,12.7395 49.1385,12.879 49.863,13.82025 L50.86725,12.92475 L50.86725,20.154 L50.868,20.154 Z M47.50125,19.9665 C49.26075,19.9665 49.863,18.3915 49.8945,16.863 C49.92675,15.28725 49.33875,13.5735 47.56125,13.5735 C45.70875,13.5735 45.22875,15.33375 45.22875,16.863 C45.2295,18.40725 45.84825,19.9665 47.50125,19.9665 Z M58.497,20.556 C57.8175,20.83275 56.93775,20.9865 56.2125,20.9865 C53.60175,20.9865 52.62975,19.2255 52.62975,16.863 C52.62975,14.45475 53.95725,12.73875 55.94925,12.73875 C58.17375,12.73875 59.085,14.5305 59.085,16.6455 L59.085,17.139 L53.69475,17.139 C53.69475,18.807 54.59025,20.15325 56.28825,20.15325 C56.99925,20.15325 57.72525,19.8585 58.1895,19.5645 L58.497,20.556 Z M58.0185,16.308 C58.0185,14.93175 57.462,13.5735 56.01075,13.5735 C54.5745,13.5735 53.69475,15.0105 53.69475,16.308 L58.0185,16.308 Z M60.9375,14.77875 C60.9375,14.175 60.9375,13.55775 60.87675,12.924 L61.818,12.924 L61.818,14.3295 L61.84875,14.3295 C62.1735,13.62075 62.75925,12.73875 64.39725,12.73875 C66.3435,12.73875 67.0845,14.03625 67.0845,15.7665 L67.0845,20.802 L66.1125,20.802 L66.1125,16.0125 C66.1125,14.5305 65.586,13.5735 64.2435,13.5735 C62.46675,13.5735 61.91175,15.13425 61.91175,16.44675 L61.91175,20.80275 L60.9375,20.80275 L60.9375,14.77875 Z M74.49825,13.97625 C73.97325,13.74375 73.4955,13.5735 72.97125,13.5735 C71.07075,13.5735 70.005,14.9475 70.005,16.863 C70.005,18.654 71.085,20.154 72.8625,20.154 C73.48125,20.154 73.743,20.013 74.328,19.79775 L74.7285,20.709 C74.06625,20.94075 73.44825,20.9865 72.70875,20.9865 C70.17525,20.9865 68.937,19.056 68.937,16.863 C68.937,14.4375 70.5,12.73875 72.8295,12.73875 C73.773,12.73875 74.45175,12.95625 74.7285,13.04775 L74.49825,13.97625 Z M81.66375,20.55525 C80.98575,20.83275 80.10525,20.9865 79.3785,20.9865 C76.7685,20.9865 75.795,19.2255 75.795,16.863 C75.795,14.45475 77.124,12.73875 79.116,12.73875 C81.342,12.73875 82.25325,14.5305 82.25325,16.6455 L82.25325,17.139 L76.86225,17.139 C76.86225,18.807 77.75775,20.15325 79.4565,20.15325 C80.1675,20.15325 80.89275,19.8585 81.357,19.5645 L81.66375,20.55525 Z M81.186,16.30725 C81.186,14.93175 80.6295,13.5735 79.17825,13.5735 C77.74275,13.5735 76.8615,15.0105 76.8615,16.308 L81.186,16.30725 Z M91.92675,10.60725 L91.82475,10.668 L91.96275,12.8595 L92.25525,12.61275 C93.027,11.961 94.17975,11.556 95.2635,11.556 C95.88975,11.556 96.27525,11.65275 96.47325,11.85825 C96.6645,12.05775 96.708,12.393 96.708,12.84375 C96.708,13.014 96.70275,13.1985 96.69525,13.3995 L96.68175,13.983 L94.75575,13.944 C92.82,13.944 89.547,14.733 89.547,17.691 C89.547,19.95225 91.0605,21.24975 93.6975,21.24975 C95.367,21.24975 96.36675,20.4615 96.888,19.8825 L96.888,20.99625 L99.1455,20.99625 L99.0525,18.68475 L99.0525,14.22075 C99.0525,11.3325 98.886,9.56325 95.58075,9.56325 C94.31775,9.5625 93.08775,9.91425 91.92675,10.60725 Z M92.04975,17.691 C92.04975,16.05375 94.275,15.81 95.5995,15.81 L96.67725,15.846 L96.67725,16.6125 C96.67725,18.24075 95.5995,19.254 93.86625,19.254 C93.13425,19.25475 92.04975,18.75675 92.04975,17.691 Z M102.2865,5.9085 L102.2865,20.99625 L104.6595,20.99625 L104.6595,3.6315 L102.2865,5.9085 Z M107.91525,5.9085 L107.91525,21.204 L110.013,19.52325 C110.649,20.38275 111.9075,21.24975 113.7345,21.24975 C117.3,21.24975 118.5645,17.9985 118.5645,15.216 C118.5645,12.40125 117.06375,9.5625 113.71425,9.5625 C112.16175,9.5625 111.05475,10.1295 110.28975,11.103 L110.28975,3.6315 L107.91525,5.9085 Z M110.28975,15.426 C110.28975,13.563 111.2295,11.55525 113.28975,11.55525 C114.009,11.55525 114.606,11.79675 115.0695,12.27075 C115.728,12.94425 116.0895,14.06925 116.05875,15.3585 C116.0835,16.2855 115.80825,17.66475 114.96225,18.53325 C114.49725,19.01175 113.92725,19.254 113.26875,19.254 C111.222,19.25475 110.28975,17.27025 110.28975,15.426 Z M128.39625,9.81825 L128.39625,15.00525 C128.39625,16.5915 127.99725,19.25475 125.31,19.25475 C123.7875,19.16175 123.2175,18.1695 123.2175,15.59625 L123.2175,9.81825 L120.84225,9.81825 L120.84225,16.4235 C120.84225,19.581 122.3055,21.2505 125.076,21.2505 C126.53775,21.2505 127.75725,20.53725 128.46075,19.50675 L128.46075,20.997 L130.773,20.997 L130.773,9.81825 L128.39625,9.81825 Z M142.32975,11.5365 C141.738,10.332 140.652,9.56325 139.27575,9.56325 C137.79675,9.56325 136.776,10.13325 135.99825,11.166 L135.99825,9.81825 L133.749,9.81825 L133.749,20.99625 L136.12425,20.99625 L136.12425,15.36375 C136.12425,13.524 136.818,11.55525 138.76725,11.55525 C140.19975,11.55525 140.49975,13.08525 140.49975,14.36775 L140.49975,20.99625 L142.8735,20.99625 L142.8735,15.36375 C142.8735,13.524 143.568,11.55525 145.51725,11.55525 C146.94975,11.55525 147.249,13.08525 147.249,14.36775 L147.249,20.99625 L149.625,20.99625 L149.625,13.8825 C149.625,11.0565 148.263,9.56325 145.68675,9.56325 C144.57075,9.5625 143.10675,10.20225 142.32975,11.5365 Z M28.719,16.0035 C27.89325,13.7205 25.77,11.81025 22.97025,10.659 C22.998,10.2705 23.055,9.86475 23.055,9.49425 C23.055,5.463 21.46875,2.47425 18.534,1.12275 C14.232,-0.85575 8.1945,1.19175 3.84825,6.10875 L4.6605,6.8265 C8.69325,2.2665 14.21025,0.32625 18.08025,2.10525 C20.607,3.27 21.97125,5.90925 21.97125,9.5025 C21.97125,9.762 21.92625,10.04925 21.91275,10.3155 C21.432,10.161 20.982,9.96375 20.47125,9.8535 C14.61,8.5965 4.707,9.65325 1.35975,14.90475 C0.18225,16.75275 0.05775,18.693 1.0095,20.37075 C2.2905,22.62375 5.25225,23.95875 8.73825,23.85225 C14.63775,23.73675 21.9435,18.6075 22.88175,11.91225 C22.887,11.86425 22.88475,11.82225 22.89075,11.77275 C25.24875,12.81375 27.009,14.45625 27.70125,16.371 C27.92025,16.98 28.02825,17.60175 28.02825,18.23025 C28.02825,19.67175 27.45525,21.14775 26.32725,22.581 C23.706,25.90725 19.25625,27.411 15.7995,28.09425 C15.558,26.5215 14.2125,25.3125 12.5715,25.3125 C10.7593157,25.3125 9.29025,26.7815657 9.29025,28.59375 C9.29025,30.4059343 10.7593157,31.875 12.5715,31.875 C14.1490449,31.8735019 15.5017052,30.7483861 15.7905,29.1975 C19.4535,28.49625 24.30675,26.90025 27.1785,23.2515 C28.64775,21.38925 29.1165,19.674 29.1165,18.2475 C29.1139108,17.4822176 28.9794426,16.7231065 28.719,16.0035 Z M21.807,11.7645 C20.95575,17.835 14.0685,22.66575 8.7105,22.77 C5.66775,22.863 3.01725,21.71175 1.9515,19.836 C1.20525,18.525 1.32075,16.98075 2.27325,15.4875 C5.3145,10.716 14.82975,9.753 20.244,10.914 C20.808,11.03475 21.3105,11.24025 21.831,11.41875 C21.81825,11.53875 21.82275,11.64375 21.807,11.7645 Z" id="Shape"></path>
                            </g>
                            <text id="Agence-de-communicat" font-family="Akkurat" font-size="10" font-weight="normal" line-spacing="15" letter-spacing="1">
                                <tspan x="36" y="31">AGENCE DE COMMUNICATION GLOBALE ET DIGITAL</tspan>
                                <tspan x="313.58" y="31">E</tspan>
                            </text>
                        </g>
                    </g>
                </g>
            </g>
        </g>
    </g>
</svg>